<svg width="24" height="24" xmlns="http://www.w3.org/2000/svg">
 <g>
  <title>Layer 1</title>
  <g id="svg_1">
   <g id="svg_2">
    <path d="m7.750746,6.455444h6.395704c0.331036,0 0.599598,-0.231274 0.599598,-0.51635c0,-0.285179 -0.268562,-0.516342 -0.599598,-0.516342h-6.395704c-0.331163,0 -0.599604,0.231163 -0.599604,0.516342c0,0.285179 0.26844,0.51635 0.599604,0.51635z" id="svg_3" fill="#ffffff"/>
    <path d="m7.750746,9.002735h8.714235c0.331047,0 0.599602,-0.231167 0.599602,-0.51635c0,-0.285126 -0.268555,-0.516346 -0.599602,-0.516346h-8.714235c-0.331163,0 -0.599604,0.23122 -0.599604,0.516346c0,0.285233 0.26844,0.51635 0.599604,0.51635z" id="svg_4" fill="#ffffff"/>
    <path d="m5.317801,2.799038h13.58013v8.094913c0.236668,0.058918 0.439869,0.14711 0.606014,0.227352c0.281094,-0.135799 0.667652,-0.295044 1.144756,-0.295044c0.016193,0 0.031963,0.00119 0.048031,0.001553v-8.028774c0,-0.855484 -0.805382,-1.549038 -1.798801,-1.549038h-13.58013c-0.993422,0 -1.798803,0.693554 -1.798803,1.549038v17.261093c0,0.85548 0.805382,1.549042 1.798803,1.549042h10.89271v-1.549042h-10.89271v-17.261093l0,0z" id="svg_5" fill="#ffffff"/>
    <path d="m23.465092,14.726021c-0.133835,-0.102654 -0.2859,-0.219036 -0.319111,-0.307438c-0.036404,-0.096664 0.006001,-0.266174 0.046711,-0.430218c0.064159,-0.257092 0.13689,-0.548412 -0.047791,-0.766926c-0.186176,-0.220535 -0.532627,-0.250736 -0.838184,-0.277431c-0.183292,-0.016113 -0.390942,-0.034134 -0.483635,-0.092377c-0.09066,-0.056797 -0.173584,-0.219654 -0.246735,-0.363304c-0.124367,-0.243977 -0.265144,-0.520424 -0.570229,-0.605675c-0.056114,-0.015694 -0.115833,-0.023647 -0.177414,-0.023647c-0.23354,0 -0.457676,0.112049 -0.67432,0.220486c-0.170998,0.085503 -0.347828,0.173901 -0.47044,0.173901c-0.122734,0 -0.299435,-0.088398 -0.470573,-0.173901c-0.216625,-0.108437 -0.440823,-0.220486 -0.674309,-0.220486c-0.061581,0 -0.121178,0.007954 -0.177418,0.023647c-0.304962,0.085251 -0.44598,0.361752 -0.570339,0.605675c-0.073212,0.14365 -0.156136,0.30661 -0.246613,0.363304c-0.092999,0.058243 -0.30064,0.07637 -0.483646,0.092377c-0.305553,0.026695 -0.651943,0.05695 -0.838242,0.277431c-0.184673,0.21841 -0.111942,0.509785 -0.047783,0.766926c0.040894,0.164043 0.083282,0.333614 0.0467,0.430271c-0.033268,0.088348 -0.185154,0.204731 -0.319099,0.307384c-0.232944,0.178444 -0.496891,0.380695 -0.496891,0.661385c0,0.28064 0.263947,0.482891 0.496891,0.661339c0.133945,0.1026 0.285892,0.218979 0.319221,0.307434c0.036335,0.096607 -0.005867,0.266228 -0.046822,0.430218c-0.064159,0.257088 -0.13689,0.548409 0.047783,0.76693c0.186298,0.220528 0.532749,0.25074 0.838242,0.277485c0.183182,0.016056 0.390831,0.034081 0.483646,0.092323c0.09066,0.05685 0.173584,0.219654 0.246735,0.36335c0.124237,0.243923 0.265255,0.520325 0.570217,0.605621c0.05624,0.015751 0.115959,0.023598 0.17754,0.023598c0.233425,0 0.457561,-0.112045 0.674187,-0.220425c0.171017,-0.08551 0.347839,-0.173962 0.470573,-0.173962c0.122612,0 0.299442,0.088398 0.47044,0.173962c0.216644,0.108379 0.44083,0.220425 0.67432,0.220425c0.061581,0 0.1213,-0.00795 0.177536,-0.023598c0.30484,-0.085297 0.44574,-0.361801 0.569984,-0.605671c0.073334,-0.143646 0.156197,-0.30661 0.246857,-0.3633c0.092876,-0.058243 0.300518,-0.076366 0.483635,-0.092377c0.305679,-0.026691 0.651947,-0.05695 0.838184,-0.277431c0.184681,-0.218468 0.11195,-0.509842 0.047791,-0.76693c-0.040894,-0.16399 -0.083279,-0.333611 -0.046597,-0.430218c0.033287,-0.088455 0.185162,-0.204834 0.318996,-0.307487c0.233059,-0.178394 0.496883,-0.380646 0.496883,-0.661285c0,-0.280689 -0.263939,-0.482941 -0.496883,-0.661385zm-3.781261,2.002285c-0.860073,0 -1.557236,-0.600357 -1.557236,-1.341007c0,-0.740593 0.697163,-1.340954 1.557236,-1.340954c0.859951,0 1.557106,0.600361 1.557106,1.340954c0,0.74065 -0.697155,1.341007 -1.557106,1.341007z" id="svg_6" fill="#ffffff"/>
    <path d="m21.147034,19.265785c-0.101749,0.028503 -0.208904,0.042912 -0.318451,0.042912c-0.356461,0 -0.659798,-0.151707 -0.903477,-0.273613c-0.069073,-0.034595 -0.176579,-0.088295 -0.241222,-0.112564c-0.064751,0.024269 -0.172134,0.078022 -0.241337,0.112564c-0.243549,0.121803 -0.547016,0.273613 -0.90324,0.273613l0,0c-0.109608,0 -0.216755,-0.014408 -0.318626,-0.042862c-0.300999,-0.084164 -0.49342,-0.260704 -0.630833,-0.450718v4.243752c0,0.084213 0.057854,0.160374 0.147316,0.194298c0.089333,0.033821 0.193668,0.018848 0.265858,-0.038059l1.681107,-1.331184l1.680981,1.331184c0.04623,0.03677 0.106136,0.05603 0.16687,0.05603c0.033394,0 0.067089,-0.005886 0.098816,-0.017971c0.089577,-0.033821 0.147324,-0.110085 0.147324,-0.194298v-4.245815c-0.13797,0.189396 -0.332722,0.369396 -0.631084,0.452732z" id="svg_7" fill="#ffffff"/>
   </g>
  </g>
  <g id="svg_8"/>
  <g id="svg_9"/>
  <g id="svg_10"/>
  <g id="svg_11"/>
  <g id="svg_12"/>
  <g id="svg_13"/>
  <g id="svg_14"/>
  <g id="svg_15"/>
  <g id="svg_16"/>
  <g id="svg_17"/>
  <g id="svg_18"/>
  <g id="svg_19"/>
  <g id="svg_20"/>
  <g id="svg_21"/>
  <g id="svg_22"/>
 </g>
</svg>
